<svg id="Layer_1" data-name="Layer 1" xmlns="http://www.w3.org/2000/svg" viewBox="0 0 689 280.25"><defs><style>.cls-1{fill:#fff;}.cls-2{fill:#cc021e;}</style></defs><title>WPHlogo2</title><path class="cls-1" d="M688.19,0H689V280.25H0V0H311.54c-.33,1.84-.69,3.68-1,5.53-1,6.25-1.88,12.5-2.81,18.74s-1.86,12.5-2.81,18.75c-1,6.87-2.09,13.73-3.12,20.6-.95,6.29-1.86,12.59-2.81,18.88-1,6.87-2.1,13.73-3.13,20.6-1.12,7.49-2.21,15-3.34,22.47-1.21,8.07-2.47,16.12-3.68,24.19-1,6.91-2,13.84-3.07,20.75-1.3,8.64-2.64,17.28-3.95,25.92q-1.75,11.57-3.47,23.14c-.22,1.48-.41,3-.61,4.45a4.16,4.16,0,0,0,.56.1q22.68,0,45.35,0c.86,0,1-.38,1.11-1.12.84-5.77,1.74-11.52,2.6-17.28q1.39-9.24,2.77-18.48,1.43-9.57,2.87-19.15t2.81-18.88c.32-2.12.66-4.23,1-6.41h52.08a85.56,85.56,0,0,0,21.2-2.45c20.21-5.15,36.54-16,48.16-33.47a84.08,84.08,0,0,0,13.41-38,72.1,72.1,0,0,0-1.41-25.15c-3.11-12.71-9.5-23.39-20-31.42C441,5.17,430.38,1.55,418.78.52L413.33,0h93.42c-.77,5.23-1.52,10.46-2.3,15.69-.93,6.25-1.89,12.5-2.83,18.75S499.76,47,498.81,53.33c-1,6.87-2.1,13.73-3.13,20.6s-2,13.84-3.09,20.75c-1.12,7.45-2.27,14.89-3.39,22.33-1,6.92-2,13.84-3.08,20.75S484,151.51,483,158.38c-.95,6.29-1.85,12.59-2.8,18.89-1,6.87-2.1,13.73-3.14,20.6q-1.6,10.57-3.17,21.14c-.25,1.66-.46,3.33-.7,5.07H520l15.08-100.32h87.43c-.45,2.94-.89,5.77-1.31,8.61q-1.41,9.44-2.8,18.89-1.56,10.44-3.15,20.87t-3.1,20.61q-1.54,10.24-3.1,20.47c-1,6.28-1.93,12.56-2.95,18.83-.17,1.05-.71,2.05-.86,3.11-.47,3.31-2.88,4.72-5.65,5.37-1.82.43-3.82,0-5.75,0H29.75v39.16h1.7q290.58,0,581.16.06c6.66,0,13.31.1,19.8-1.73,2.66-.75,5.51-1.05,7.75-2.86,3.1-2.5,5.15-5.82,7-9.28,2.19-4.14,2.52-8.75,3.24-13.25,1-6.29,1.89-12.59,2.84-18.89s1.9-12.49,2.84-18.74,1.9-12.68,2.85-19,1.89-12.5,2.83-18.75,1.88-12.59,2.83-18.88,1.9-12.59,2.84-18.88,1.89-12.59,2.83-18.88,1.89-12.59,2.84-18.88l2.83-18.88L678.75,64l2.84-18.88q1.42-9.44,2.83-18.88c.86-5.72,1.75-11.43,2.59-17.15C687.44,6,687.8,3,688.19,0ZM179.81,144.63h-.36q-.52-6.17-1-12.33c-.3-3.58-.58-7.16-.88-10.74-.42-5-.86-9.93-1.28-14.89-.31-3.58-.59-7.15-.9-10.73-.42-4.87-.85-9.75-1.26-14.62-.39-4.65-.76-9.3-1.15-14-.42-5-.86-10-1.28-15-.3-3.49-.57-7-.87-10.47q-.64-7.51-1.29-15c-.3-3.53-.59-7.07-.89-10.6-.42-4.87-.91-9.75-1.22-14.63C167.3.39,166.92.15,165.8.16c-5.67,0-11.34,0-17,0-9.81,0-19.62,0-29.43,0a1.59,1.59,0,0,0-1.84,1.27c-.5,1.63-1.14,3.21-1.72,4.81L67.21,139.67c-.6,1.65-1.23,3.3-1.85,4.94l-.35-.06L50.12.29H.28L30,224c.46,0,.81.05,1.17.05,13.72,0,27.45,0,41.17,0a1.89,1.89,0,0,0,2.1-1.48Q83.2,200.25,92,177.87q19.2-48.84,38.41-97.68c.16-.41.39-.8.59-1.19l.29.07,12.79,145h1.48q21.19,0,42.39,0a1.71,1.71,0,0,0,1.85-1.27q25-58.18,50.07-116.34,22-51.13,44-102.26C284.46,3,285,1.64,285.6.18H241.13c-3.32,0-3.33,0-4.55,3l-52.8,131.61C182.47,138.1,181.13,141.36,179.81,144.63Z"/><path d="M688.19,0c-.39,3-.75,6-1.19,9.05-.84,5.72-1.72,11.44-2.59,17.15q-1.42,9.44-2.83,18.88L678.75,64l-2.84,18.88-2.83,18.88q-1.42,9.44-2.84,18.88t-2.83,18.88q-1.42,9.44-2.84,18.88t-2.83,18.88q-1.41,9.38-2.83,18.75t-2.85,19c-.94,6.25-1.9,12.49-2.84,18.74s-1.84,12.6-2.84,18.89c-.72,4.5-1,9.11-3.24,13.25-1.83,3.46-3.89,6.78-7,9.28-2.24,1.81-5.09,2.12-7.75,2.86-6.49,1.82-13.14,1.73-19.8,1.73q-290.58,0-581.16-.06h-1.7V240.56H593.87c1.92,0,3.93.39,5.75,0,2.77-.65,5.18-2.06,5.65-5.37.15-1.05.69-2.05.86-3.11,1-6.27,2-12.55,2.95-18.83q1.57-10.23,3.1-20.47t3.1-20.61q1.57-10.44,3.15-20.87,1.41-9.44,2.8-18.89c.42-2.84.86-5.67,1.31-8.61H535.11L520,224.09H473.18c.24-1.74.45-3.41.7-5.07q1.58-10.57,3.17-21.14c1-6.87,2.11-13.73,3.14-20.6.95-6.29,1.85-12.59,2.8-18.89,1-6.87,2.1-13.74,3.13-20.61s2-13.84,3.08-20.75c1.12-7.45,2.27-14.89,3.39-22.33,1-6.92,2-13.84,3.09-20.75s2.1-13.73,3.13-20.6c.95-6.29,1.86-12.59,2.81-18.89s1.89-12.5,2.83-18.75c.78-5.23,1.54-10.46,2.3-15.69h47q-1.48,9.7-3,19.41-1.56,10.37-3.1,20.75-1.42,9.44-2.84,18.88T542,78c-.32,2.11-.61,4.22-.92,6.39h87.35c.05-.22.1-.39.13-.55q1.15-7.58,2.29-15.16,1.42-9.37,2.83-18.74,1.56-10.37,3.11-20.75,1.42-9.44,2.84-18.88c.53-3.45,1.08-6.9,1.63-10.35Z"/><path d="M413.33,0l5.45.52c11.6,1,22.25,4.66,31.55,11.8,10.46,8,16.85,18.71,20,31.42a72.1,72.1,0,0,1,1.41,25.15,84.08,84.08,0,0,1-13.41,38c-11.61,17.49-27.94,28.32-48.16,33.47a85.56,85.56,0,0,1-21.2,2.45H336.85c-.34,2.18-.68,4.29-1,6.41q-1.41,9.44-2.81,18.88t-2.87,19.15q-1.38,9.24-2.77,18.48c-.87,5.76-1.76,11.52-2.6,17.28-.11.74-.25,1.12-1.11,1.12q-22.68,0-45.35,0a4.16,4.16,0,0,1-.56-.1c.2-1.49.39-3,.61-4.45q1.73-11.57,3.47-23.14c1.31-8.64,2.65-17.27,3.95-25.92,1-6.91,2-13.84,3.07-20.75,1.21-8.07,2.46-16.12,3.68-24.19,1.13-7.49,2.21-15,3.34-22.47,1-6.87,2.1-13.73,3.13-20.6.95-6.29,1.86-12.59,2.81-18.88,1-6.87,2.09-13.73,3.12-20.6q1.41-9.37,2.81-18.75c.93-6.25,1.86-12.5,2.81-18.74.28-1.85.65-3.69,1-5.53ZM342.56,104.75h1.63c14.17,0,28.35.11,42.52-.06a93.19,93.19,0,0,0,14.17-1.35,31.84,31.84,0,0,0,16.7-7.85C428,85.88,432.09,73.82,430.22,60A21.6,21.6,0,0,0,416.55,42.1a41.84,41.84,0,0,0-16-3.13c-15.7-.14-31.4-.07-47.11-.1-.79,0-1,.23-1.15,1-.82,5.72-1.73,11.43-2.59,17.15-.94,6.25-1.84,12.5-2.78,18.75-.85,5.67-1.73,11.34-2.58,17C343.74,96.73,343.17,100.63,342.56,104.75Z"/><path class="cls-1" d="M641.21,0c-.54,3.45-1.1,6.9-1.63,10.35q-1.44,9.44-2.84,18.88Q635.18,39.61,633.63,50q-1.41,9.37-2.83,18.74-1.14,7.58-2.29,15.16c0,.17-.08.33-.13.55H541c.31-2.17.61-4.28.92-6.39q1.43-9.51,2.87-19t2.84-18.88q1.56-10.37,3.1-20.75,1.46-9.71,3-19.41Z"/><path class="cls-2" d="M179.81,144.63c1.32-3.27,2.66-6.53,4-9.81L236.58,3.22c1.22-3,1.22-3,4.55-3H285.6C285,1.64,284.46,3,283.9,4.25q-22,51.13-44,102.26-25,58.17-50.07,116.34a1.71,1.71,0,0,1-1.85,1.27q-21.19-.05-42.39,0h-1.48l-12.79-145L131,79c-.2.4-.43.78-.59,1.19Q111.22,129,92,177.87q-8.8,22.39-17.57,44.79a1.89,1.89,0,0,1-2.1,1.48c-13.72-.05-27.45,0-41.17,0-.35,0-.71,0-1.17-.05L.28.29H50.12L65,144.55l.35.06c.62-1.65,1.25-3.29,1.85-4.94L115.8,6.24c.58-1.6,1.22-3.18,1.72-4.81A1.59,1.59,0,0,1,119.36.15c9.81,0,19.62,0,29.43,0,5.67,0,11.34,0,17,0,1.12,0,1.5.24,1.58,1.47.32,4.88.8,9.75,1.22,14.63.3,3.53.59,7.07.89,10.6q.64,7.51,1.29,15c.3,3.49.57,7,.87,10.47.42,5,.86,10,1.28,15,.39,4.65.76,9.3,1.15,14,.41,4.88.84,9.75,1.26,14.62.3,3.58.59,7.15.9,10.73.42,5,.86,9.93,1.28,14.89.3,3.58.58,7.16.88,10.74q.51,6.17,1,12.33Z"/><path class="cls-1" d="M342.56,104.75c.61-4.12,1.18-8,1.77-11.91.85-5.67,1.73-11.34,2.58-17,.94-6.25,1.84-12.5,2.78-18.75.86-5.72,1.77-11.43,2.59-17.15.12-.81.36-1,1.15-1,15.7,0,31.41,0,47.11.1a41.84,41.84,0,0,1,16,3.13A21.6,21.6,0,0,1,430.22,60c1.88,13.86-2.22,25.92-12.63,35.53a31.84,31.84,0,0,1-16.7,7.85,93.19,93.19,0,0,1-14.17,1.35c-14.17.17-28.35.06-42.52.06Z"/></svg>