<svg id="Layer_1" data-name="Layer 1" xmlns="http://www.w3.org/2000/svg" viewBox="0 0 927.73 432.39"><defs><style>.cls-1{fill:#020b0f;}.cls-2{fill:#ee4035;}</style></defs><title>WPHlogo5</title><path class="cls-1" d="M769,142.59v73.23c.77-.77,1.27-1.21,1.7-1.71q14.6-16.86,29.16-33.74a4.62,4.62,0,0,1,3.95-1.81c9.65.1,19.31,0,29.39,0-1.31,1.45-2.39,2.66-3.49,3.86q-14,15.34-28,30.66a2.69,2.69,0,0,0-.48,3.66q15.07,28.86,30,57.8c.35.68.64,1.39,1,2.24-.69,0-1.2.09-1.72.09-8.52,0-17,0-25.56,0a2.42,2.42,0,0,1-2.56-1.62q-10-20.58-20.07-41.1c-.2-.41-.42-.82-.39-.76-3.17,2.93-6.24,6.05-9.6,8.81-2.85,2.34-3.5,5.1-3.41,8.63.23,8.57.08,17.14.08,25.86H742.84v-2.47q0-64.61,0-129.22c0-.83-.1-1.67-.15-2.5Z"/><path class="cls-1" d="M785.52,432.39c-2.29-.24-4.59-.44-6.88-.72-10.24-1.24-19.56-4.57-26.9-12.15-5.92-6.11-9.27-13.6-11-21.83-2.56-12.33-3.09-24.71.45-36.94,5.05-17.46,16.62-28,34.53-31.21a56.17,56.17,0,0,1,27,1.43c13.16,4.13,21.18,13.42,25.57,26.16a78.85,78.85,0,0,1,4,22.87c.09,2.32,0,4.64,0,7.2H765c-.22,9.57,5.1,22.12,17.67,24.1,7.41,1.16,14.38,0,19.54-6.22a28.18,28.18,0,0,0,2.44-4.3h26.48c-.47,1.39-.85,2.69-1.35,3.94q-9.44,23.44-34.47,27c-1.82.26-3.64.46-5.47.69Zm-19.79-61.68h39.94c.18-12.21-8.33-21.32-19.66-21.51C775.2,349,766.1,358,765.73,370.71Z"/><path class="cls-1" d="M516.24,432.39c-2.36-.24-4.72-.44-7.08-.73-10.3-1.27-19.66-4.65-27-12.35-5.7-6-9-13.22-10.69-21.19-2.52-11.65-3.11-23.38-.25-35,4.55-18.56,16.11-30,35.06-33.52a56.89,56.89,0,0,1,26,1.1,36.57,36.57,0,0,1,22.89,18.09c6.56,11.9,7.9,24.91,8,38.43H495.4a32.9,32.9,0,0,0,2.46,11.49c5.89,13.94,20.7,15.49,30.37,10.35a13.64,13.64,0,0,0,6.8-8.23h26.65A42,42,0,0,1,556.81,412c-7.11,11.47-17.51,17.87-30.81,19.68-1.81.25-3.63.46-5.44.69Zm-20-61.67H536.3c0-9.48-5.15-20.17-18.21-21.43C507.3,348.25,497.19,356.25,496.21,370.72Z"/><path class="cls-1" d="M680.4,432.39c-1.94-.22-3.87-.46-5.81-.67-21.85-2.37-37.51-16.92-41.37-38.57-2.15-12.06-1.72-24,2.92-35.46,6.33-15.64,18.14-24.72,34.55-27.9a58.37,58.37,0,0,1,30,1.62c14.37,4.78,24.15,14.42,28.76,28.84,4.87,15.22,4.63,30.46-1.92,45.19-6.23,14-17.37,22.22-32.21,25.47-3.08.67-6.27.79-9.41,1.18a8.63,8.63,0,0,0-1.15.3Zm26.3-51.87c-.49-4-.72-8-1.53-11.88-1.39-6.69-4.54-12.34-11-15.57-4.17-2.1-8.66-2.5-13.26-2.42-9.66.17-17.07,5.39-20,14.57a50.84,50.84,0,0,0-.24,29.87c2,6.82,6.16,11.82,13.11,14.13a28.55,28.55,0,0,0,11.35,1.16c8.56-.69,15-4.59,18.32-12.79C705.78,392.14,706.46,386.42,706.7,380.53Z"/><path class="cls-1" d="M881.65,432.39c-2.42-.24-4.85-.42-7.27-.72-9.9-1.23-19.19-4-26.83-10.83a29.6,29.6,0,0,1-10.22-21.23c0-.41,0-.82,0-1.34h26.59a12.56,12.56,0,0,0,4.5,9.77,19.68,19.68,0,0,0,10.12,4.21c6,.79,11.94.57,17.64-1.78,3.07-1.26,5.4-3.19,5.59-6.77.21-3.93-1.13-7.31-4.94-8.74a148.83,148.83,0,0,0-15-4.64c-9-2.34-18.06-4.65-26.3-9.17a44.64,44.64,0,0,1-7.2-5c-5.09-4.29-7-10.1-7.38-16.55a29.93,29.93,0,0,1,.9-10.5c2.58-8.39,8.68-13.21,16.43-16.39a56.48,56.48,0,0,1,18.87-3.87c8.52-.42,17-.17,25.26,2.33,12.52,3.8,19.46,12.42,21.73,25.08.27,1.53.44,3.07.68,4.74h-25c-.14-.66-.24-1.24-.38-1.81-1.76-6.86-5.23-10-12.94-10.89a35.51,35.51,0,0,0-14.76,1c-3,.92-5.25,2.55-5.67,6s1.1,5.89,4,7.56a16.28,16.28,0,0,0,3,1.51c6.07,2,12.16,3.84,18.25,5.75,7.22,2.27,14.52,4.31,21.62,6.92,5.14,1.89,9.68,5.06,11.88,10.34,1.27,3,1.71,6.41,2.48,9.65.2.85.25,1.74.37,2.61v3.6a2.89,2.89,0,0,0-.3.79c-.51,7.74-4.1,13.83-9.93,18.76-6.76,5.71-14.86,7.88-23.4,8.89-2.46.29-4.94.49-7.41.72Z"/><path class="cls-2" d="M636.84,142.59q-.05,9.53-.11,19.05c0,1.68,0,3.35,0,5.17H610.56V142.59Z"/><path class="cls-1" d="M382.31,346.76h51.84V297.07h28V429.43H434.23V370.25H382.38v59.19H354.76V297.07h27.55Z"/><path class="cls-1" d="M503.76,144.18h1.94q27.53,0,55.07,0c9.68,0,18.8,1.86,26.78,7.65,9.39,6.82,14.74,16.13,16.58,27.53,1.58,9.78.55,19.24-4,28.11-5.89,11.54-15.66,18-28.15,20.39a56.84,56.84,0,0,1-10.18.79c-9.42.1-18.84,0-28.25,0h-2.11v48.09H503.76Zm27.72,23v38.84a2.37,2.37,0,0,0,.59.18c10.36-.1,20.74.09,31.08-.4,6.69-.32,12.21-3.42,15.21-9.8a21.84,21.84,0,0,0,.82-16.94A15.52,15.52,0,0,0,568,168.58a43.4,43.4,0,0,0-9.71-1.4c-8.33-.19-16.66-.07-25-.06C532.74,167.12,532.16,167.18,531.48,167.21Z"/><path class="cls-1" d="M446.61,234.54h-67.7c.32,2.23.46,4.29.92,6.28,1.85,8,5.83,14.45,14,17,7.81,2.46,15.31,1.59,21.56-4.28,1.26-1.18,1.89-3,2.9-4.47a2.17,2.17,0,0,1,1.36-1c8.4-.05,16.79,0,25.19,0a1.74,1.74,0,0,1,.44.16c-3.22,10.5-9,19.07-18.52,24.87a43.83,43.83,0,0,1-21.08,6.3,66.38,66.38,0,0,1-22.87-2.5c-12.41-3.8-21.08-11.73-25.42-23.91-5.51-15.47-6.32-31.33-1.28-47,5.43-16.89,17.42-26.55,35-29.23a56.78,56.78,0,0,1,26.1,1.66c12.5,4,20.37,12.73,24.86,24.79,2.95,7.92,4.12,16.19,4.54,24.58C446.7,230,446.61,232.18,446.61,234.54ZM419.94,218.1c-.11-11.22-7-21.83-20.87-21.49-10.25.25-18.75,9.1-19.15,21.49Z"/><path class="cls-1" d="M736.37,213.79h-26c-.26-1-.5-2.12-.79-3.19a17.69,17.69,0,0,0-16.81-13c-6.35-.14-11.87,1.42-15.79,6.77a26.32,26.32,0,0,0-4.71,12.27c-1.14,8.54-1.06,17.08,1.33,25.45a25.31,25.31,0,0,0,5.15,9.56c5,5.88,11.27,7.41,18.47,5.27s11.64-7,12.72-14.65l.12-.81h26.15c-1.82,13.5-8.35,23.88-19.79,31.06-8.46,5.32-17.78,7.35-27.74,6.92-8.37-.36-16.22-2.29-23.19-7-9.16-6.22-14.53-15.15-17.17-25.69-3.68-14.69-3.79-29.42,1.19-43.85,5.36-15.52,16.78-23.8,32.76-26.15,10.11-1.49,20.09-1,29.66,2.86,13.66,5.54,21.67,15.66,24,30.25C736.08,211.11,736.19,212.36,736.37,213.79Z"/><path class="cls-1" d="M597.24,429.48H571.39V331.35h24.06v10.89l.46.33a29.06,29.06,0,0,1,13.79-11.68c5.88-2.36,12-2.23,18.36-2.15v25.9a76,76,0,0,0-8.35.06,44.37,44.37,0,0,0-10.32,2c-7.23,2.65-10.68,8.49-11.74,15.85a48.18,48.18,0,0,0-.39,6.8q0,23.93,0,47.86Z"/><path class="cls-1" d="M610.68,178.67h25.74v98.12H610.68Z"/><path class="cls-2" d="M341.41,113.87c-.63.05-1.26.15-1.88.15H310l-32.51,117.4-30.38-117.3h-45q-.79,3.31-1.58,6.59c-.59,2.44-1.2,4.87-1.77,7.31-1,4.18-1.93,8.37-2.91,12.55-1,4.37-2.08,8.73-3.09,13.1-.57,2.44-1.05,4.9-1.62,7.34-.37,1.6-.84,3.18-1.21,4.77-.69,3-1.34,5.93-2,8.88-.36,1.55-.79,3.09-1.16,4.64-.7,3-1.38,5.91-2.08,8.86-.75,3.19-1.53,6.38-2.28,9.57-.68,2.91-1.34,5.83-2,8.74-.39,1.65-.81,3.28-1.2,4.93-.68,2.91-1.34,5.82-2,8.73-.85,3.56-1.73,7.12-2.83,10.7-.38-1.31-.76-2.63-1.14-3.94-.74-2.6-1.48-5.2-2.21-7.81-.84-3-1.64-6.06-2.48-9.08-.59-2.14-1.21-4.27-1.8-6.41-.49-1.77-1-3.54-1.45-5.3-.69-2.46-1.41-4.92-2.1-7.39-.76-2.74-1.49-5.5-2.25-8.24s-1.54-5.38-2.3-8.07c-.68-2.41-1.34-4.83-2-7.24-.33-1.16-.67-2.31-1-3.47-.49-1.77-1-3.53-1.46-5.3-.77-2.79-1.55-5.58-2.32-8.37-.69-2.51-1.35-5-2.05-7.55s-1.46-5-2.17-7.5c-.95-3.34-1.87-6.69-2.8-10-.76-2.74-1.5-5.49-2.28-8.23-.5-1.77-.53-1.77,1-2.66l46.75-27,50.55-29.19,64-36.93q17.36-10,34.71-20.06A12.86,12.86,0,0,0,340.83,0c.18.12.62-.28.59.29,0,.34,0,.68,0,1Z"/><path class="cls-2" d="M341.41,394.23a15.64,15.64,0,0,1-1.59-.7l-28.38-16.38-50.3-29-63.33-36.59-22.3-12.87-1.28-.75c.62-.06,1-.13,1.29-.13h16.09a5.82,5.82,0,0,0,1.17-.05c.53-.11.73-.52.87-1,.57-2.24,1.19-4.47,1.78-6.71.72-2.75,1.4-5.51,2.14-8.26s1.6-5.66,2.38-8.49q1.86-6.77,3.68-13.56c.94-3.49,1.84-7,2.77-10.48q1.14-4.33,2.29-8.67,1.45-5.45,2.91-10.91c.88-3.27,1.77-6.53,2.64-9.79.69-2.61,1.35-5.23,2-7.84.57-2.14,1.18-4.27,1.76-6.41.45-1.68.88-3.36,1.33-5,1.13-4.24,2.25-8.48,3.39-12.72.64-2.37,1.32-4.73,2-7.2.8.55.68,1.47.88,2.16,1,3.47,1.91,7,2.82,10.48,1,3.83,1.93,7.67,2.92,11.5.71,2.76,1.48,5.5,2.22,8.25q1.21,4.55,2.41,9.1c.82,3.13,1.61,6.27,2.42,9.4,1.26,4.9,2.51,9.81,3.81,14.71,1.15,4.34,2.39,8.65,3.54,13,1,3.78,1.94,7.57,2.91,11.36s2,7.65,3,11.47c1.16,4.44,2.35,8.86,3.53,13.29,0,0,0,.1,0,.14,1,2.76.48,2.32,3,2.32q18.51,0,37,0c.44,0,.88,0,1.32,0a1.07,1.07,0,0,0,1-.88q1.49-4.92,3-9.84c1-3.18,2-6.36,3-9.54s1.89-6.19,2.85-9.28q1.6-5.19,3.21-10.38c1-3.18,2-6.36,3-9.54,1.36-4.44,2.67-8.89,4-13.32,1.64-5.31,3.32-10.61,5-15.92q2.32-7.48,4.62-15T330.9,189c.92-3,1.81-6,2.73-9,1-3.23,2-6.44,3-9.67,1.06-3.41,2.08-6.84,3.14-10.25.51-1.66,1.07-3.3,1.61-4.95Z"/><path class="cls-2" d="M0,197.08l103.11-59.53c.34,1,.65,1.86.92,2.72,1.31,4.1,2.63,8.2,3.92,12.31,1.13,3.59,2.22,7.2,3.33,10.8l3.68,11.9c1.07,3.46,2.13,6.93,3.22,10.39,1.25,4,2.53,7.91,3.78,11.87,1.13,3.59,2.23,7.19,3.35,10.79,1.25,4,2.48,8,3.74,12,1.82,5.81,3.67,11.61,5.5,17.42q1.65,5.25,3.27,10.52c1.15,3.73,2.28,7.48,3.43,11.21s2.34,7.57,3.52,11.35q1.85,6,3.72,11.91C147.41,282.52,1.35,198.26,0,197.08Z"/></svg>
