<?xml version="1.0" encoding="utf-8"?>
<!-- Generator: Adobe Illustrator 21.0.2, SVG Export Plug-In . SVG Version: 6.00 Build 0)  -->
<svg version="1.1" id="Layer_1" xmlns="http://www.w3.org/2000/svg" xmlns:xlink="http://www.w3.org/1999/xlink" x="0px" y="0px"
	 viewBox="0 0 689 280.2" style="enable-background:new 0 0 689 280.2;" xml:space="preserve">
<style type="text/css">
	.st0{fill:#F3F3F3;}
	.st1{fill:#1BA7BC;}
</style>
<g>
	<path class="st0" d="M688.2,0c-0.4,3-0.7,6-1.2,9.1c-0.8,5.7-1.7,11.4-2.6,17.2c-0.9,6.3-1.9,12.6-2.8,18.9
		c-0.9,6.3-1.9,12.6-2.8,18.9c-0.9,6.3-1.9,12.6-2.8,18.9c-0.9,6.3-1.9,12.6-2.8,18.9c-0.9,6.3-1.9,12.6-2.8,18.9
		c-0.9,6.3-1.9,12.6-2.8,18.9c-0.9,6.3-1.9,12.6-2.8,18.9c-0.9,6.3-1.9,12.6-2.8,18.9c-0.9,6.3-1.9,12.5-2.8,18.8
		c-1,6.3-1.9,12.7-2.8,19c-0.9,6.2-1.9,12.5-2.8,18.7c-0.9,6.3-1.8,12.6-2.8,18.9c-0.7,4.5-1,9.1-3.2,13.3c-1.8,3.5-3.9,6.8-7,9.3
		c-2.2,1.8-5.1,2.1-7.7,2.9c-6.5,1.8-13.1,1.7-19.8,1.7c-193.7,0-387.4,0-581.2-0.1c-0.5,0-1.1,0-1.7,0c0-13.1,0-26,0-39.2
		c0.5,0,1,0,1.4,0c187.6,0,375.1,0,562.7,0c1.9,0,3.9,0.4,5.7,0c2.8-0.7,5.2-2.1,5.7-5.4c0.2-1.1,0.7-2.1,0.9-3.1
		c1-6.3,2-12.5,2.9-18.8c1-6.8,2.1-13.6,3.1-20.5c1-6.9,2.1-13.7,3.1-20.6c1-7,2.1-13.9,3.1-20.9c0.9-6.3,1.9-12.6,2.8-18.9
		c0.4-2.8,0.9-5.7,1.3-8.6c-29.1,0-58.2,0-87.4,0c-5,33.4-10,66.8-15.1,100.3c-15.6,0-31.1,0-46.8,0c0.2-1.7,0.4-3.4,0.7-5.1
		c1.1-7,2.1-14.1,3.2-21.1c1-6.9,2.1-13.7,3.1-20.6c0.9-6.3,1.9-12.6,2.8-18.9c1-6.9,2.1-13.7,3.1-20.6c1-6.9,2-13.8,3.1-20.8
		c1.1-7.4,2.3-14.9,3.4-22.3c1-6.9,2-13.8,3.1-20.8c1-6.9,2.1-13.7,3.1-20.6c0.9-6.3,1.9-12.6,2.8-18.9c0.9-6.3,1.9-12.5,2.8-18.7
		c0.8-5.2,1.5-10.5,2.3-15.7c15.7,0,31.3,0,47,0c-1,6.5-2,12.9-3,19.4c-1,6.9-2.1,13.8-3.1,20.7c-0.9,6.3-1.9,12.6-2.8,18.9
		c-1,6.3-1.9,12.7-2.9,19c-0.3,2.1-0.6,4.2-0.9,6.4c29.2,0,58.3,0,87.3,0c0.1-0.2,0.1-0.4,0.1-0.6c0.8-5.1,1.5-10.1,2.3-15.2
		c0.9-6.2,1.9-12.5,2.8-18.7c1-6.9,2.1-13.8,3.1-20.7c0.9-6.3,1.9-12.6,2.8-18.9c0.5-3.5,1.1-6.9,1.6-10.3C656.9,0,672.5,0,688.2,0z
		"/>
	<path class="st0" d="M413.3,0c1.8,0.2,3.6,0.4,5.5,0.5c11.6,1,22.2,4.7,31.5,11.8c10.5,8,16.9,18.7,20,31.4
		c2,8.3,2.3,16.7,1.4,25.1c-1.5,13.7-5.8,26.5-13.4,38c-11.6,17.5-27.9,28.3-48.2,33.5c-6.9,1.8-14,2.4-21.2,2.4
		c-16.8,0-33.6,0-50.3,0c-0.5,0-1.1,0-1.7,0c-0.3,2.2-0.7,4.3-1,6.4c-0.9,6.3-1.9,12.6-2.8,18.9c-1,6.4-1.9,12.8-2.9,19.1
		c-0.9,6.2-1.8,12.3-2.8,18.5c-0.9,5.8-1.8,11.5-2.6,17.3c-0.1,0.7-0.2,1.1-1.1,1.1c-15.1,0-30.2,0-45.4,0c-0.1,0-0.3,0-0.6-0.1
		c0.2-1.5,0.4-3,0.6-4.5c1.2-7.7,2.3-15.4,3.5-23.1c1.3-8.6,2.6-17.3,3.9-25.9c1-6.9,2-13.8,3.1-20.8c1.2-8.1,2.5-16.1,3.7-24.2
		c1.1-7.5,2.2-15,3.3-22.5c1-6.9,2.1-13.7,3.1-20.6c0.9-6.3,1.9-12.6,2.8-18.9c1-6.9,2.1-13.7,3.1-20.6c0.9-6.2,1.9-12.5,2.8-18.8
		c0.9-6.2,1.9-12.5,2.8-18.7c0.3-1.8,0.6-3.7,1-5.5C345.5,0,379.4,0,413.3,0z M342.6,104.8c0.7,0,1.1,0,1.6,0
		c14.2,0,28.3,0.1,42.5-0.1c4.7-0.1,9.5-0.6,14.2-1.3c6.2-1,12-3.5,16.7-7.9c10.4-9.6,14.5-21.7,12.6-35.5
		c-1.1-8.3-5.7-14.5-13.7-17.9c-5.1-2.2-10.5-3.1-16-3.1c-15.7-0.1-31.4-0.1-47.1-0.1c-0.8,0-1,0.2-1.2,1
		c-0.8,5.7-1.7,11.4-2.6,17.1c-0.9,6.2-1.8,12.5-2.8,18.8c-0.9,5.7-1.7,11.3-2.6,17C343.7,96.7,343.2,100.6,342.6,104.8z"/>
	<path class="st1" d="M179.8,144.6c1.3-3.3,2.7-6.5,4-9.8C201.4,91,219,47.1,236.6,3.2c1.2-3,1.2-3,4.5-3c14.2,0,28.3,0,42.5,0
		c0.6,0,1.2,0,1.9,0c-0.6,1.5-1.1,2.8-1.7,4.1c-14.7,34.1-29.3,68.2-44,102.3c-16.7,38.8-33.4,77.6-50.1,116.3
		c-0.4,0.9-0.8,1.3-1.9,1.3c-14.1,0-28.3,0-42.4,0c-0.4,0-0.9,0-1.5,0c-4.3-48.4-8.5-96.7-12.8-145c-0.1,0-0.2,0-0.3-0.1
		c-0.2,0.4-0.4,0.8-0.6,1.2c-12.8,32.6-25.6,65.1-38.4,97.7c-5.9,14.9-11.7,29.8-17.6,44.8c-0.4,1.1-0.9,1.5-2.1,1.5
		c-13.7-0.1-27.4,0-41.2,0c-0.4,0-0.7,0-1.2-0.1C20.1,149.5,10.2,74.9,0.3,0.3c16.6,0,33.2,0,49.8,0c5,48.1,9.9,96.2,14.9,144.3
		c0.1,0,0.2,0,0.3,0.1c0.6-1.6,1.2-3.3,1.8-4.9c16.2-44.5,32.4-89,48.6-133.4c0.6-1.6,1.2-3.2,1.7-4.8c0.3-1,0.8-1.3,1.8-1.3
		c9.8,0,19.6,0,29.4,0c5.7,0,11.3,0,17,0c1.1,0,1.5,0.2,1.6,1.5c0.3,4.9,0.8,9.8,1.2,14.6c0.3,3.5,0.6,7.1,0.9,10.6
		c0.4,5,0.9,10,1.3,15c0.3,3.5,0.6,7,0.9,10.5c0.4,5,0.9,10,1.3,15c0.4,4.7,0.8,9.3,1.1,14c0.4,4.9,0.8,9.7,1.3,14.6
		c0.3,3.6,0.6,7.2,0.9,10.7c0.4,5,0.9,9.9,1.3,14.9c0.3,3.6,0.6,7.2,0.9,10.7c0.3,4.1,0.7,8.2,1,12.3
		C179.6,144.6,179.7,144.6,179.8,144.6z"/>
</g>
</svg>
