<?xml version="1.0" encoding="utf-8"?>
<!-- Generator: Adobe Illustrator 21.0.2, SVG Export Plug-In . SVG Version: 6.00 Build 0)  -->
<svg version="1.1" id="Layer_1" xmlns="http://www.w3.org/2000/svg" xmlns:xlink="http://www.w3.org/1999/xlink" x="0px" y="0px"
	 viewBox="0 0 903.3 432.5" style="enable-background:new 0 0 903.3 432.5;" xml:space="preserve">
<style type="text/css">
	.st0{fill:#062736;}
	.st1{fill:#1BA7BC;}
</style>
<g>
	<path class="st0" d="M744.5,142.6c0,24.2,0,48.5,0,73.2c0.8-0.8,1.3-1.2,1.7-1.7c9.7-11.2,19.5-22.5,29.2-33.7
		c1.1-1.3,2.2-1.8,3.9-1.8c9.7,0.1,19.3,0,29.4,0c-1.3,1.5-2.4,2.7-3.5,3.9c-9.3,10.2-18.6,20.5-28,30.7c-1.1,1.2-1.3,2.1-0.5,3.7
		c10,19.2,20,38.5,30,57.8c0.4,0.7,0.6,1.4,1,2.2c-0.7,0-1.2,0.1-1.7,0.1c-8.5,0-17,0-25.6,0c-1.3,0-2-0.4-2.6-1.6
		c-6.7-13.7-13.4-27.4-20.1-41.1c-0.2-0.4-0.4-0.8-0.4-0.8c-3.2,2.9-6.2,6.1-9.6,8.8c-2.9,2.3-3.5,5.1-3.4,8.6
		c0.2,8.6,0.1,17.1,0.1,25.9c-8.7,0-17.3,0-26.1,0c0-0.8,0-1.6,0-2.5c0-43.1,0-86.1,0-129.2c0-0.8-0.1-1.7-0.1-2.5
		C727,142.6,735.8,142.6,744.5,142.6z"/>
	<path class="st0" d="M761.1,432.4c-2.3-0.2-4.6-0.4-6.9-0.7c-10.2-1.2-19.6-4.6-26.9-12.2c-5.9-6.1-9.3-13.6-11-21.8
		c-2.6-12.3-3.1-24.7,0.4-36.9c5.1-17.5,16.6-28,34.5-31.2c9-1.6,18.1-1.3,27,1.4c13.2,4.1,21.2,13.4,25.6,26.2
		c2.6,7.4,3.7,15.1,4,22.9c0.1,2.3,0,4.6,0,7.2c-22.4,0-44.9,0-67.3,0c-0.2,9.6,5.1,22.1,17.7,24.1c7.4,1.2,14.4,0,19.5-6.2
		c1-1.2,1.6-2.8,2.4-4.3c8.6,0,17.4,0,26.5,0c-0.5,1.4-0.8,2.7-1.3,3.9c-6.3,15.6-17.8,24.6-34.5,27c-1.8,0.3-3.6,0.5-5.5,0.7
		C764,432.4,762.5,432.4,761.1,432.4z M741.3,370.7c13.3,0,26.6,0,39.9,0c0.2-12.2-8.3-21.3-19.7-21.5
		C750.8,349,741.7,358,741.3,370.7z"/>
	<path class="st0" d="M491.8,432.4c-2.4-0.2-4.7-0.4-7.1-0.7c-10.3-1.3-19.7-4.6-27-12.3c-5.7-6-9-13.2-10.7-21.2
		c-2.5-11.7-3.1-23.4-0.3-35c4.5-18.6,16.1-30,35.1-33.5c8.7-1.6,17.4-1.3,26,1.1c10.1,2.9,17.8,8.9,22.9,18.1
		c6.6,11.9,7.9,24.9,8,38.4c-22.6,0-45.1,0-67.7,0c0.2,4.1,0.9,7.9,2.5,11.5c5.9,13.9,20.7,15.5,30.4,10.3c3.4-1.8,5.6-4.6,6.8-8.2
		c8.9,0,17.7,0,26.7,0c-1.1,4.1-2.7,7.8-4.9,11.2c-7.1,11.5-17.5,17.9-30.8,19.7c-1.8,0.2-3.6,0.5-5.4,0.7
		C494.7,432.4,493.2,432.4,491.8,432.4z M471.8,370.7c13.4,0,26.8,0,40.1,0c0-9.5-5.2-20.2-18.2-21.4
		C482.9,348.2,472.7,356.3,471.8,370.7z"/>
	<path class="st0" d="M656,432.4c-1.9-0.2-3.9-0.5-5.8-0.7c-21.9-2.4-37.5-16.9-41.4-38.6c-2.2-12.1-1.7-24,2.9-35.5
		c6.3-15.6,18.1-24.7,34.5-27.9c10.1-2,20.2-1.6,30,1.6c14.4,4.8,24.2,14.4,28.8,28.8c4.9,15.2,4.6,30.5-1.9,45.2
		c-6.2,14-17.4,22.2-32.2,25.5c-3.1,0.7-6.3,0.8-9.4,1.2c-0.4,0-0.8,0.2-1.2,0.3C658.8,432.4,657.4,432.4,656,432.4z M682.3,380.5
		c-0.5-4-0.7-8-1.5-11.9c-1.4-6.7-4.5-12.3-11-15.6c-4.2-2.1-8.7-2.5-13.3-2.4c-9.7,0.2-17.1,5.4-20,14.6
		c-3.1,9.9-3.1,19.9-0.2,29.9c2,6.8,6.2,11.8,13.1,14.1c3.7,1.2,7.5,1.5,11.4,1.2c8.6-0.7,15-4.6,18.3-12.8
		C681.3,392.1,682,386.4,682.3,380.5z"/>
	<path class="st0" d="M857.2,432.4c-2.4-0.2-4.9-0.4-7.3-0.7c-9.9-1.2-19.2-4-26.8-10.8c-6.3-5.6-9.7-12.7-10.2-21.2
		c0-0.4,0-0.8,0-1.3c8.9,0,17.7,0,26.6,0c0.2,3.9,1.4,7.3,4.5,9.8c2.9,2.4,6.4,3.7,10.1,4.2c6,0.8,11.9,0.6,17.6-1.8
		c3.1-1.3,5.4-3.2,5.6-6.8c0.2-3.9-1.1-7.3-4.9-8.7c-4.9-1.8-9.9-3.3-15-4.6c-9-2.3-18.1-4.6-26.3-9.2c-2.6-1.4-5-3.1-7.2-5
		c-5.1-4.3-7-10.1-7.4-16.5c-0.2-3.5-0.2-7,0.9-10.5c2.6-8.4,8.7-13.2,16.4-16.4c6-2.5,12.4-3.6,18.9-3.9c8.5-0.4,17-0.2,25.3,2.3
		c12.5,3.8,19.5,12.4,21.7,25.1c0.3,1.5,0.4,3.1,0.7,4.7c-8.4,0-16.7,0-25,0c-0.1-0.7-0.2-1.2-0.4-1.8c-1.8-6.9-5.2-10-12.9-10.9
		c-4.9-0.6-9.9-0.5-14.8,1c-3,0.9-5.2,2.6-5.7,6c-0.4,3.5,1.1,5.9,4,7.6c1,0.6,2,1.2,3,1.5c6.1,2,12.2,3.8,18.2,5.8
		c7.2,2.3,14.5,4.3,21.6,6.9c5.1,1.9,9.7,5.1,11.9,10.3c1.3,3,1.7,6.4,2.5,9.6c0.2,0.9,0.3,1.7,0.4,2.6c0,1.2,0,2.4,0,3.6
		c-0.1,0.3-0.3,0.5-0.3,0.8c-0.5,7.7-4.1,13.8-9.9,18.8c-6.8,5.7-14.9,7.9-23.4,8.9c-2.5,0.3-4.9,0.5-7.4,0.7
		C860.6,432.4,858.9,432.4,857.2,432.4z"/>
	<path class="st1" d="M612.4,142.6c0,6.4-0.1,12.7-0.1,19.1c0,1.7,0,3.4,0,5.2c-8.7,0-17.3,0-26.2,0c0-8.1,0-16.2,0-24.2
		C594.9,142.6,603.6,142.6,612.4,142.6z"/>
	<path class="st0" d="M357.9,349.8c17.4,0,34.5,0,51.8,0c0-16.6,0-33.1,0-49.7c9.4,0,18.6,0,28,0c0,44.1,0,88.2,0,132.4
		c-9.3,0-18.5,0-27.9,0c0-19.7,0-39.4,0-59.2c-17.3,0-34.5,0-51.9,0c0,19.7,0,39.4,0,59.2c-9.3,0-18.4,0-27.6,0
		c0-44.1,0-88.2,0-132.4c9.1,0,18.2,0,27.6,0C357.9,316.6,357.9,333.1,357.9,349.8z"/>
	<path class="st0" d="M479.3,144.2c0.7,0,1.3,0,1.9,0c18.4,0,36.7,0,55.1,0c9.7,0,18.8,1.9,26.8,7.7c9.4,6.8,14.7,16.1,16.6,27.5
		c1.6,9.8,0.6,19.2-4,28.1c-5.9,11.5-15.7,18-28.2,20.4c-3.3,0.6-6.8,0.8-10.2,0.8c-9.4,0.1-18.8,0-28.3,0c-0.6,0-1.3,0-2.1,0
		c0,16.1,0,32,0,48.1c-9.3,0-18.4,0-27.7,0C479.3,232.7,479.3,188.5,479.3,144.2z M507,167.2c0,13,0,25.9,0,38.8
		c0.3,0.1,0.4,0.2,0.6,0.2c10.4-0.1,20.7,0.1,31.1-0.4c6.7-0.3,12.2-3.4,15.2-9.8c2.6-5.5,2.8-11.2,0.8-16.9
		c-1.9-5.4-5.6-9.1-11.1-10.5c-3.2-0.8-6.5-1.3-9.7-1.4c-8.3-0.2-16.7-0.1-25-0.1C508.3,167.1,507.7,167.2,507,167.2z"/>
	<path class="st0" d="M422.2,232.5c-22.4,0-44.8,0-67.7,0c0.3,2.2,0.5,4.3,0.9,6.3c1.9,8,5.8,14.4,14,17c7.8,2.5,15.3,1.6,21.6-4.3
		c1.3-1.2,1.9-3,2.9-4.5c0.3-0.4,0.9-1,1.4-1c8.4-0.1,16.8,0,25.2,0c0.1,0,0.2,0.1,0.4,0.2c-3.2,10.5-9,19.1-18.5,24.9
		c-6.5,3.9-13.5,5.9-21.1,6.3c-7.8,0.4-15.4-0.2-22.9-2.5c-12.4-3.8-21.1-11.7-25.4-23.9c-5.5-15.5-6.3-31.3-1.3-47
		c5.4-16.9,17.4-26.6,35-29.2c8.8-1.3,17.6-1.1,26.1,1.7c12.5,4,20.4,12.7,24.9,24.8c2.9,7.9,4.1,16.2,4.5,24.6
		C422.3,228,422.2,230.2,422.2,232.5z M395.5,216.1c-0.1-11.2-7-21.8-20.9-21.5c-10.2,0.2-18.8,9.1-19.1,21.5
		C368.8,216.1,382.2,216.1,395.5,216.1z"/>
	<path class="st0" d="M711.9,211.8c-8.8,0-17.3,0-26,0c-0.3-1-0.5-2.1-0.8-3.2c-2-7.6-8.9-12.8-16.8-13c-6.4-0.1-11.9,1.4-15.8,6.8
		c-2.7,3.6-4.1,7.9-4.7,12.3c-1.1,8.5-1.1,17.1,1.3,25.5c1,3.5,2.7,6.7,5.1,9.6c5,5.9,11.3,7.4,18.5,5.3c7.3-2.2,11.6-7,12.7-14.6
		c0-0.2,0.1-0.5,0.1-0.8c8.7,0,17.3,0,26.2,0c-1.8,13.5-8.4,23.9-19.8,31.1c-8.5,5.3-17.8,7.3-27.7,6.9c-8.4-0.4-16.2-2.3-23.2-7
		c-9.2-6.2-14.5-15.1-17.2-25.7c-3.7-14.7-3.8-29.4,1.2-43.9c5.4-15.5,16.8-23.8,32.8-26.1c10.1-1.5,20.1-1,29.7,2.9
		c13.7,5.5,21.7,15.7,24,30.3C711.6,209.1,711.7,210.4,711.9,211.8z"/>
	<path class="st0" d="M572.8,432.5c-8.7,0-17.2,0-25.8,0c0-32.7,0-65.4,0-98.1c8,0,15.9,0,24.1,0c0,3.7,0,7.3,0,10.9
		c0.2,0.1,0.3,0.2,0.5,0.3c3.4-5.3,7.9-9.3,13.8-11.7c5.9-2.4,12-2.2,18.4-2.2c0,8.8,0,17.5,0,25.9c-2.8,0-5.6-0.2-8.4,0.1
		c-3.5,0.4-7.1,0.8-10.3,2c-7.2,2.7-10.7,8.5-11.7,15.9c-0.3,2.2-0.4,4.5-0.4,6.8c0,16,0,31.9,0,47.9
		C572.8,430.9,572.8,431.6,572.8,432.5z"/>
	<path class="st0" d="M586.2,178.7c8.6,0,17.1,0,25.7,0c0,32.7,0,65.4,0,98.1c-8.6,0-17.1,0-25.7,0
		C586.2,244.1,586.2,211.5,586.2,178.7z"/>
	<g>
		<path class="st1" d="M317,105.7c-0.6,0-1.2,0.1-1.7,0.1c-8.6,0-17.1,0-25.7,0c-0.5,0-1.1,0-1.7,0c-10.1,36.4-20.1,72.7-30.2,109
			c-9.4-36.3-18.8-72.6-28.2-108.9c-14,0-27.8,0-41.8,0c-0.5,2-1,4.1-1.5,6.1c-0.5,2.3-1.1,4.5-1.6,6.8c-0.9,3.9-1.8,7.8-2.7,11.7
			c-0.9,4.1-1.9,8.1-2.9,12.2c-0.5,2.3-1,4.5-1.5,6.8c-0.3,1.5-0.8,2.9-1.1,4.4c-0.6,2.7-1.2,5.5-1.9,8.2c-0.3,1.4-0.7,2.9-1.1,4.3
			c-0.7,2.7-1.3,5.5-1.9,8.2c-0.7,3-1.4,5.9-2.1,8.9c-0.6,2.7-1.2,5.4-1.9,8.1c-0.4,1.5-0.8,3-1.1,4.6c-0.6,2.7-1.2,5.4-1.9,8.1
			c-0.8,3.3-1.6,6.6-2.6,9.9c-0.4-1.2-0.7-2.4-1.1-3.7c-0.7-2.4-1.4-4.8-2-7.2c-0.8-2.8-1.5-5.6-2.3-8.4c-0.5-2-1.1-4-1.7-6
			c-0.5-1.6-0.9-3.3-1.3-4.9c-0.6-2.3-1.3-4.6-2-6.9c-0.7-2.5-1.4-5.1-2.1-7.7c-0.7-2.5-1.4-5-2.1-7.5c-0.6-2.2-1.2-4.5-1.9-6.7
			c-0.3-1.1-0.6-2.1-0.9-3.2c-0.5-1.6-0.9-3.3-1.4-4.9c-0.7-2.6-1.4-5.2-2.2-7.8c-0.6-2.3-1.3-4.7-1.9-7c-0.7-2.3-1.4-4.6-2-7
			c-0.9-3.1-1.7-6.2-2.6-9.3c-0.7-2.5-1.4-5.1-2.1-7.6c-0.5-1.6-0.5-1.6,0.9-2.5c14.5-8.4,28.9-16.7,43.4-25.1
			c15.6-9,31.3-18.1,46.9-27.1c19.8-11.4,39.6-22.9,59.4-34.3c10.7-6.2,21.5-12.4,32.2-18.6c0.5-0.3,0.8-0.6,1.3-1
			c0.2,0.1,0.6-0.3,0.5,0.3c0,0.3,0,0.6,0,1C317,36.1,317,70.9,317,105.7z"/>
		<path class="st1" d="M317,366c-0.5-0.2-1-0.4-1.5-0.7c-8.8-5.1-17.6-10.1-26.3-15.2c-15.6-9-31.1-18-46.7-26.9
			c-19.6-11.3-39.2-22.6-58.8-34c-6.9-4-13.8-8-20.7-11.9c-0.3-0.2-0.6-0.4-1.2-0.7c0.6-0.1,0.9-0.1,1.2-0.1c5,0,10,0,14.9,0
			c0.4,0,0.7,0,1.1,0c0.5-0.1,0.7-0.5,0.8-1c0.5-2.1,1.1-4.2,1.6-6.2c0.7-2.6,1.3-5.1,2-7.7c0.7-2.6,1.5-5.3,2.2-7.9
			c1.2-4.2,2.3-8.4,3.4-12.6c0.9-3.2,1.7-6.5,2.6-9.7c0.7-2.7,1.4-5.4,2.1-8c0.9-3.4,1.8-6.8,2.7-10.1c0.8-3,1.6-6.1,2.4-9.1
			c0.6-2.4,1.2-4.9,1.9-7.3c0.5-2,1.1-4,1.6-6c0.4-1.6,0.8-3.1,1.2-4.7c1-3.9,2.1-7.9,3.1-11.8c0.6-2.2,1.2-4.4,1.9-6.7
			c0.7,0.5,0.6,1.4,0.8,2c0.9,3.2,1.8,6.5,2.6,9.7c0.9,3.6,1.8,7.1,2.7,10.7c0.7,2.6,1.4,5.1,2.1,7.7c0.8,2.8,1.5,5.6,2.2,8.4
			c0.8,2.9,1.5,5.8,2.2,8.7c1.2,4.6,2.3,9.1,3.5,13.7c1.1,4,2.2,8,3.3,12.1c0.9,3.5,1.8,7,2.7,10.5c0.9,3.6,1.8,7.1,2.7,10.7
			c1.1,4.1,2.2,8.2,3.3,12.3c0,0,0,0.1,0,0.1c0.9,2.6,0.4,2.2,2.8,2.2c11.5,0,22.9,0,34.4,0c0.4,0,0.8,0,1.2,0
			c0.5,0,0.8-0.3,0.9-0.8c0.9-3,1.9-6.1,2.8-9.1c0.9-3,1.9-5.9,2.8-8.9c0.9-2.9,1.8-5.7,2.6-8.6c1-3.2,2-6.4,3-9.6
			c0.9-3,1.9-5.9,2.8-8.9c1.3-4.1,2.5-8.3,3.7-12.4c1.5-4.9,3.1-9.9,4.6-14.8c1.4-4.6,2.9-9.3,4.3-13.9c1.4-4.7,2.9-9.3,4.3-14
			c0.9-2.8,1.7-5.6,2.5-8.4c0.9-3,1.9-6,2.8-9c1-3.2,1.9-6.3,2.9-9.5c0.5-1.5,1-3.1,1.5-4.6C317,218,317,292,317,366z"/>
		<path class="st1" d="M0,183c31.9-18.4,63.7-36.8,95.7-55.3c0.3,0.9,0.6,1.7,0.9,2.5c1.2,3.8,2.4,7.6,3.6,11.4
			c1,3.3,2.1,6.7,3.1,10c1.1,3.7,2.3,7.4,3.4,11c1,3.2,2,6.4,3,9.6c1.2,3.7,2.4,7.3,3.5,11c1.1,3.3,2.1,6.7,3.1,10
			c1.2,3.7,2.3,7.5,3.5,11.2c1.7,5.4,3.4,10.8,5.1,16.2c1,3.3,2,6.5,3,9.8c1.1,3.5,2.1,6.9,3.2,10.4c1.1,3.5,2.2,7,3.3,10.5
			c1.1,3.7,2.3,7.4,3.5,11.1C136.9,262.3,1.3,184.1,0,183z"/>
	</g>
</g>
</svg>
