<svg height="50px" width="100px" id="Layer_1" data-name="Layer 1" xmlns="http://www.w3.org/2000/svg" viewBox="0 0 904.04 596.32"><defs><style>.cls-1{fill:#1cb8ff;}.cls-2{fill:#ff3652;}</style></defs><title>WPHlogo1</title><path class="cls-1" d="M174.24,499.2h-.36q-3.43-7.06-6.86-14.13-6.27-12.86-12.55-25.7-4-8.25-8-16.52L134.18,417.6,122,392.51l-12.58-25.88L97.54,342.17,85.19,316.76,73,291.66,60.75,266.41q-6.09-12.55-12.18-25.09-6.33-13-12.67-26Q30,203.13,24.1,191q-7.82-16-15.68-32c-.67-1.37-1.28-2.78-2-4.15Q3.25,148.25,0,141.72c.12-.24.2-.64.37-.69a5,5,0,0,1,1.25,0h124a7.9,7.9,0,0,0,.35,1c7,13.95,14.08,27.87,21,41.84,3.83,7.69,7.45,15.48,11.29,23.16,7,14,14.09,28,21.13,42,3.2,6.37,6.37,12.76,9.56,19.14a11.69,11.69,0,0,0,.74,1.13c.18-.26.25-.35.31-.45q12.38-24.55,24.72-49.11a2,2,0,0,1,2.12-1.33c4.92.07,9.84,0,14.76,0q33,0,66,0A2.11,2.11,0,0,1,300,219.7c2.75,5.6,5.67,11.12,8.49,16.7,3.51,6.95,7,13.91,10.45,20.87L325,269.38c.33-.52.54-.79.69-1.09,3.78-7.46,7.6-14.9,11.32-22.39,7-14,13.83-28.1,20.8-42.13,3.67-7.39,7.46-14.71,11.17-22.08q7.23-14.38,14.39-28.78c2-3.95,3.85-7.93,5.77-11.9q62.1,0,124.2,0c.45,0,1.55-.74,1.44.68a4.45,4.45,0,0,0-.49.67q-6,12.48-12,25-6.21,12.88-12.47,25.74-6.09,12.55-12.18,25.1-6.17,12.7-12.36,25.4-6.05,12.47-12.09,24.94-6.17,12.71-12.36,25.41-6.09,12.54-12.18,25.1l-12.27,25.25q-6.09,12.55-12.18,25.09Q398,382.24,391.7,395.09c-4,8.2-7.93,16.43-11.92,24.63-4.17,8.58-8.38,17.13-12.55,25.71-4.71,9.68-9.38,19.39-14.11,29.07-4,8.25-8.13,16.47-12.2,24.71h-.36a10,10,0,0,0-.47-1.68c-2-4.19-4-8.37-6.08-12.56l-12.27-25.26q-6.09-12.55-12.18-25.1-6.18-12.71-12.37-25.41-6.06-12.47-12.09-24.95-6.33-13-12.67-26-5.9-12.15-11.8-24.3c-1-2-2.05-4.06-3.21-6.34-.34.65-.55,1-.75,1.45q-4.68,9.7-9.36,19.4-6.16,12.72-12.35,25.42l-12.18,25.1-12.27,25.26q-6.09,12.55-12.18,25.1Q192.15,462,186,474.7c-3.73,7.62-7.51,15.21-11.24,22.83A9.48,9.48,0,0,0,174.24,499.2Z"/><path class="cls-1" d="M723.68,511.2H629V0h94.67V209.41h91.51V190q0-93.85,0-187.71c0-.78,0-1.56-.07-2.33H904V511.2H815.12c0-.66.07-1.32.07-2q0-101.06,0-202.13V305H723.68Z"/><path class="cls-2" d="M536.64,596.32H456.36q0-56.42,0-112.85,0-187.18,0-374.36a8.31,8.31,0,0,0,0-1.44c-.17-1,.3-1.41,1.12-1.67H595.68c1.37.09,2.74.22,4.11.27,6.82.26,13.67.17,20.46.82a78.76,78.76,0,0,1,37.08,13.82c16.6,11.28,28.09,26.73,36.24,44.83,7.83,17.39,11.66,35.75,12.52,54.74a173.74,173.74,0,0,1-2,36.18c-2.38,14.44-6.39,28.37-13.49,41.19-18.09,32.63-45.54,50.07-83.24,50.31-22.91.14-45.83.08-68.74.12h-2Zm.1-312.65c14.77-.19,29.35-.18,43.9-.66a39.25,39.25,0,0,0,17.73-5.29c8.62-4.8,13.78-12.44,17.38-21.29a72.91,72.91,0,0,0,4.82-22.27c.78-10.47.08-20.77-3.07-30.8-2.66-8.47-6.74-16.19-13.72-21.95-7.81-6.44-17.08-9-27-9.15-12.77-.19-25.55-.06-38.33-.06-.57,0-1.14,0-1.71.07Z"/></svg>
